<?xml version="1.0" encoding="UTF-8"?>
<svg version="1.1" xmlns="http://www.w3.org/2000/svg" width="500" height="500">
<path d="M0 0 C15.37548927 -0.10711756 30.75255696 -0.09800776 46.125 0.25 C47.33687988 0.26409912 48.54875977 0.27819824 49.79736328 0.29272461 C63.81768759 0.68234 76.72849014 5.23064148 86.6875 15.4375 C93.26023532 23.56610021 98.7450599 34.6019249 100 45 C99.505 45.99 99.505 45.99 99 47 C93.06 47 87.12 47 81 47 C80.5875 44.215625 80.175 41.43125 79.75 38.5625 C78.04715103 27.91422081 74.86657254 16.99992569 66 10 C58.42045541 6.00609034 51.33015151 5.35814729 42.875 5.25 C41.72773438 5.22035156 40.58046875 5.19070312 39.3984375 5.16015625 C36.59889078 5.09016758 33.80014239 5.03712189 31 5 C31.00785522 6.85516235 31.00785522 6.85516235 31.01586914 8.74780273 C31.03391561 13.31924725 31.04543071 17.89068859 31.05493164 22.4621582 C31.05997267 24.44393441 31.06680538 26.42570689 31.07543945 28.4074707 C31.08751515 31.24952109 31.09323045 34.09152247 31.09765625 36.93359375 C31.10281754 37.82525742 31.10797882 38.71692108 31.11329651 39.63560486 C31.11349177 41.75740601 31.0621003 43.8791078 31 46 C29.24440058 47.75559942 26.96417558 47.13221919 24.62890625 47.13671875 C23.92636719 47.13285156 23.22382813 47.12898438 22.5 47.125 C21.79746094 47.12886719 21.09492188 47.13273437 20.37109375 47.13671875 C15.12661378 47.12661378 15.12661378 47.12661378 14 46 C13.91128727 42.97022196 13.8848065 39.96332978 13.90234375 36.93359375 C13.9037587 36.02497086 13.90517365 35.11634796 13.90663147 34.18019104 C13.91224807 31.26592779 13.92480335 28.35174019 13.9375 25.4375 C13.94251286 23.46679798 13.94707614 21.49609476 13.95117188 19.52539062 C13.96222289 14.68356441 13.97949862 9.84179505 14 5 C9.38 5 4.76 5 0 5 C0 3.35 0 1.7 0 0 Z " fill="#000000" transform="translate(301,184)"/>
<path d="M0 0 C1.59424048 0.02437679 3.18848925 0.04821616 4.78274536 0.07154846 C8.92878863 0.13363928 13.07468026 0.20290786 17.22058105 0.27380371 C21.47120402 0.34517573 25.7219324 0.40957688 29.97265625 0.47460938 C38.27615859 0.60265109 46.57951353 0.73829523 54.8828125 0.87890625 C56.22604854 4.78222733 57.19151099 8.27372934 57.55078125 12.390625 C57.68323242 13.89786133 57.68323242 13.89786133 57.81835938 15.43554688 C57.94307617 16.98532227 57.94307617 16.98532227 58.0703125 18.56640625 C58.16505859 19.61119141 58.25980469 20.65597656 58.35742188 21.73242188 C59.01192751 29.49156122 59.01192751 29.49156122 57.8828125 32.87890625 C56.5628125 32.87890625 55.2428125 32.87890625 53.8828125 32.87890625 C53.65207031 31.96109375 53.42132813 31.04328125 53.18359375 30.09765625 C51.27236794 22.90600816 49.15301304 17.04697369 44.8828125 10.87890625 C44.8828125 10.21890625 44.8828125 9.55890625 44.8828125 8.87890625 C44.2640625 8.56953125 43.6453125 8.26015625 43.0078125 7.94140625 C41.6328125 7.25390625 40.2578125 6.56640625 38.8828125 5.87890625 C37.509349 5.72885652 36.1299599 5.63052619 34.75 5.5625 C33.94433594 5.52060547 33.13867188 5.47871094 32.30859375 5.43554688 C31.46683594 5.39623047 30.62507813 5.35691406 29.7578125 5.31640625 C28.90832031 5.27322266 28.05882812 5.23003906 27.18359375 5.18554688 C25.08353027 5.07936389 22.98319302 4.97862128 20.8828125 4.87890625 C20.88804932 6.08015137 20.89328613 7.28139648 20.89868164 8.51904297 C20.91674903 12.96565001 20.9282509 17.41225378 20.93774414 21.85888672 C20.94278037 23.78532456 20.94960962 25.71175856 20.95825195 27.63818359 C20.97034858 30.40332993 20.97604783 33.16842583 20.98046875 35.93359375 C20.98563004 36.79822235 20.99079132 37.66285095 20.99610901 38.55368042 C20.99668421 44.65116284 20.99668421 44.65116284 19.8828125 46.87890625 C14.6028125 46.87890625 9.3228125 46.87890625 3.8828125 46.87890625 C3.8828125 33.01890625 3.8828125 19.15890625 3.8828125 4.87890625 C-10.6342926 4.30656167 -10.6342926 4.30656167 -20.8125 10.60546875 C-24.4776267 15.47227634 -26.53607528 20.01517882 -28.1171875 25.87890625 C-28.51298555 27.23308323 -28.90881547 28.5872509 -29.3046875 29.94140625 C-29.5728125 30.91078125 -29.8409375 31.88015625 -30.1171875 32.87890625 C-31.4371875 32.87890625 -32.7571875 32.87890625 -34.1171875 32.87890625 C-34.38532514 25.41574197 -33.95366284 18.10832133 -33.1796875 10.69140625 C-33.09283691 9.84151123 -33.00598633 8.99161621 -32.91650391 8.1159668 C-32.24554494 2.00726369 -32.24554494 2.00726369 -31.1171875 0.87890625 C-20.78306502 -0.41635686 -10.38688661 -0.1877596 0 0 Z " fill="#010101" transform="translate(233.1171875,184.12109375)"/>
<path d="M0 0 C5.61 0 11.22 0 17 0 C17.33 7.26 17.66 14.52 18 22 C37.76551716 23.10341089 37.76551716 23.10341089 55 15 C58.77596752 10.33809932 61.3152853 5.3694294 64 0 C68.95 0 73.9 0 79 0 C74.50300401 11.24248997 66.2852335 18.32496469 55.375 23.3125 C40.85612817 28.38770041 24.63583774 27.24693333 9.5 27.125 C7.30859787 27.11494323 5.11719124 27.10582218 2.92578125 27.09765625 C-2.38291263 27.07587242 -7.69143452 27.04261153 -13 27 C-13.33 25.68 -13.66 24.36 -14 23 C-9.38 23 -4.76 23 0 23 C0 15.41 0 7.82 0 0 Z " fill="#000000" transform="translate(315,269)"/>
<path d="M0 0 C0.99 0 1.98 0 3 0 C6.2418856 8.6576166 9.18844244 17.40448323 12.05639648 26.19140625 C12.56557082 27.74605673 13.0786711 29.29942626 13.59545898 30.8515625 C14.34959929 33.11706154 15.09210342 35.38607536 15.83203125 37.65625 C16.06525589 38.34996704 16.29848053 39.04368408 16.53877258 39.75842285 C18.1141238 44.65762859 18.1141238 44.65762859 17 48 C14.3941111 48.13494246 11.79517889 48.23402299 9.1875 48.3125 C8.44951172 48.35439453 7.71152344 48.39628906 6.95117188 48.43945312 C4.79296875 48.48828125 4.79296875 48.48828125 1 48 C-0.875 45.8125 -0.875 45.8125 -2 43 C-2.38542969 42.11699219 -2.77085937 41.23398438 -3.16796875 40.32421875 C-3.50441406 39.45410156 -3.84085938 38.58398438 -4.1875 37.6875 C-4.53167969 36.80449219 -4.87585938 35.92148438 -5.23046875 35.01171875 C-5.61138672 34.01591797 -5.61138672 34.01591797 -6 33 C-6.31453125 33.99902344 -6.6290625 34.99804688 -6.953125 36.02734375 C-7.38455559 37.33101444 -7.81689464 38.63438474 -8.25 39.9375 C-8.45496094 40.59685547 -8.65992188 41.25621094 -8.87109375 41.93554688 C-9.515625 43.83984375 -9.515625 43.83984375 -11 47 C-13.171875 47.94140625 -13.171875 47.94140625 -15 48 C-14.38180534 42.52475513 -13.07195698 37.58771498 -11.34765625 32.36328125 C-11.08746201 31.56141891 -10.82726776 30.75955658 -10.55918884 29.93339539 C-10.0113552 28.24921846 -9.46073674 26.56594508 -8.9074707 24.88354492 C-8.06230882 22.31191827 -7.22677745 19.73731042 -6.39257812 17.16210938 C-5.85733446 15.52064944 -5.32154593 13.87936705 -4.78515625 12.23828125 C-4.53613052 11.47155594 -4.2871048 10.70483063 -4.03053284 9.91487122 C-2.89748886 6.48100683 -1.76125384 3.16692496 0 0 Z " fill="#000000" transform="translate(139,183)"/>
<path d="M0 0 C5.94 0 11.88 0 18 0 C20.98563656 7.25083164 23.57220749 14.54320872 26 22 C32.93 22.495 32.93 22.495 40 23 C39.67 24.32 39.34 25.64 39 27 C23.49 27 7.98 27 -8 27 C-8.33 25.68 -8.66 24.36 -9 23 C-4.38 23 0.24 23 5 23 C4.55808127 16.371219 3.0835663 10.75598724 0.83984375 4.50390625 C0 2 0 2 0 0 Z M6 20 C7 23 7 23 7 23 Z " fill="#000000" transform="translate(152,269)"/>
<path d="M0 0 C5.28 0 10.56 0 16 0 C17.2263757 2.45275141 17.11415314 4.0505781 17.09765625 6.7890625 C17.09443359 7.73007812 17.09121094 8.67109375 17.08789062 9.640625 C17.07532227 11.11789062 17.07532227 11.11789062 17.0625 12.625 C17.05798828 13.61757813 17.05347656 14.61015625 17.04882812 15.6328125 C17.03702161 18.08856722 17.01908582 20.54429106 17 23 C21.62 23 26.24 23 31 23 C30.67 24.32 30.34 25.64 30 27 C15.48 27 0.96 27 -14 27 C-14.33 26.01 -14.66 25.02 -15 24 C-14 23 -14 23 -10.83984375 22.90234375 C-7.2265625 22.93489583 -3.61328125 22.96744792 0 23 C0 15.41 0 7.82 0 0 Z " fill="#000000" transform="translate(237,269)"/>
<path d="M0 0 C0.99 0 1.98 0 3 0 C2.50017022 8.16388645 -0.32431755 15.31598887 -3 23 C2.94 23 8.88 23 15 23 C15.495 23.99 15.495 23.99 16 25 C15.67 25.66 15.34 26.32 15 27 C12.05859375 27.4140625 12.05859375 27.4140625 8.4375 27.625 C7.23996094 27.69976562 6.04242188 27.77453125 4.80859375 27.8515625 C3.41833984 27.92503906 3.41833984 27.92503906 2 28 C2 27.67 2 27.34 2 27 C-5.59 27 -13.18 27 -21 27 C-21.33 25.68 -21.66 24.36 -22 23 C-17.38 22.67 -12.76 22.34 -8 22 C-7.50628906 20.49566406 -7.01257813 18.99132812 -6.50390625 17.44140625 C-5.85692813 15.4817189 -5.20978416 13.52208629 -4.5625 11.5625 C-4.23701172 10.56927734 -3.91152344 9.57605469 -3.57617188 8.55273438 C-3.26357422 7.60849609 -2.95097656 6.66425781 -2.62890625 5.69140625 C-2.34088135 4.81685791 -2.05285645 3.94230957 -1.75610352 3.04125977 C-1 1 -1 1 0 0 Z " fill="#010101" transform="translate(111,269)"/>
<path d="M0 0 C1.4370809 -0.05422947 2.87475462 -0.09289723 4.3125 -0.125 C5.11300781 -0.14820313 5.91351563 -0.17140625 6.73828125 -0.1953125 C9 0 9 0 12 2 C12.58203125 4.3125 12.58203125 4.3125 12.8125 7 C12.90144531 7.886875 12.99039063 8.77375 13.08203125 9.6875 C13 12 13 12 11 14 C8.3984375 14.1953125 8.3984375 14.1953125 5.375 14.125 C3.87066406 14.09792969 3.87066406 14.09792969 2.3359375 14.0703125 C1.56507813 14.04710937 0.79421875 14.02390625 0 14 C-1.33257403 4.58997722 -1.33257403 4.58997722 0 0 Z M4 9 C4.66 9.66 5.32 10.32 6 11 C6 10.34 6 9.68 6 9 C5.34 9 4.68 9 4 9 Z " fill="#010101" transform="translate(128,243)"/>
<path d="M0 0 C4 1 4 1 5.75 3.5625 C6.1625 4.366875 6.575 5.17125 7 6 C8.1446875 4.515 8.1446875 4.515 9.3125 3 C10.61328125 1.3125 10.61328125 1.3125 12 0 C12.99 0 13.98 0 15 0 C15 4.62 15 9.24 15 14 C13.68 14 12.36 14 11 14 C10.67 13.01 10.34 12.02 10 11 C8.02 11.99 8.02 11.99 6 13 C5.34 12.34 4.68 11.68 4 11 C3.67 11.99 3.34 12.98 3 14 C2.01 14 1.02 14 0 14 C0 9.38 0 4.76 0 0 Z " fill="#010101" transform="translate(366,243)"/>
<path d="M0 0 C4.19174654 1.04793663 5.21592961 1.91763635 8 5 C8.33 3.35 8.66 1.7 9 0 C10.32 0.33 11.64 0.66 13 1 C13 4.96 13 8.92 13 13 C11.68 13.33 10.36 13.66 9 14 C6.75 12.5625 6.75 12.5625 5 11 C4.67 11.99 4.34 12.98 4 14 C2.68 14 1.36 14 0 14 C0 9.38 0 4.76 0 0 Z M4 8 C5 10 5 10 5 10 Z " fill="#010101" transform="translate(325,243)"/>
<path d="M0 0 C7.23809524 -0.36190476 7.23809524 -0.36190476 10.5 1.1875 C12 3 12 3 12.3125 5.5625 C12 8 12 8 11 10 C11.39938767 12.09821215 11.39938767 12.09821215 12 14 C10.35 13.67 8.7 13.34 7 13 C7 12.34 7 11.68 7 11 C6.5875 11.495 6.175 11.99 5.75 12.5 C4 14 4 14 0 14 C0 9.38 0 4.76 0 0 Z M5 4 C6.485 4.99 6.485 4.99 8 6 C8 5.34 8 4.68 8 4 C7.01 4 6.02 4 5 4 Z " fill="#010101" transform="translate(168,243)"/>
<path d="M0 0 C8.22222222 0 8.22222222 0 12 2 C13.54163175 5.0832635 13.29747535 7.60878099 13 11 C11.5625 12.9375 11.5625 12.9375 9 14 C5.9521497 14.23081827 3.06655253 14.13528908 0 14 C0 9.38 0 4.76 0 0 Z M6 4 C6 4.66 6 5.32 6 6 C5.34 6 4.68 6 4 6 C4 7.32 4 8.64 4 10 C5.65 9.67 7.3 9.34 9 9 C8.67 7.35 8.34 5.7 8 4 C7.34 4 6.68 4 6 4 Z " fill="#010101" transform="translate(286,243)"/>
<path d="M0 0 C3.3 0 6.6 0 10 0 C10.96600942 3.75670331 10.77076968 6.24249781 10 10 C10.33 11.32 10.66 12.64 11 14 C7.37 14 3.74 14 0 14 C0 9.38 0 4.76 0 0 Z " fill="#010101" transform="translate(216,243)"/>
<path d="M0 0 C1.32 0 2.64 0 4 0 C4.33 0.99 4.66 1.98 5 3 C5.4125 2.505 5.825 2.01 6.25 1.5 C8 0 8 0 12 0 C11.38722388 2.96175123 10.74627478 4.38058783 9 7 C10.32 9.31 11.64 11.62 13 14 C9.95613276 14.08226668 7.92824652 13.97608217 5 13 C3.35 13.33 1.7 13.66 0 14 C0 9.38 0 4.76 0 0 Z " fill="#010101" transform="translate(109,243)"/>
<path d="M0 0 C1.32 0.33 2.64 0.66 4 1 C4 2.32 4 3.64 4 5 C5.32 5 6.64 5 8 5 C8.33 3.35 8.66 1.7 9 0 C9.99 0 10.98 0 12 0 C12 4.62 12 9.24 12 14 C10.68 14 9.36 14 8 14 C8 12.35 8 10.7 8 9 C6.68 9 5.36 9 4 9 C4 10.65 4 12.3 4 14 C2.68 14 1.36 14 0 14 C0 9.38 0 4.76 0 0 Z " fill="#010101" transform="translate(254,243)"/>
<path d="M0 0 C1.32 0 2.64 0 4 0 C4.84026396 1.76755526 5.67198722 3.53917263 6.5 5.3125 C6.9640625 6.29863281 7.428125 7.28476563 7.90625 8.30078125 C9 11 9 11 9 14 C7.68 14 6.36 14 5 14 C4.34 13.34 3.68 12.68 3 12 C1.10332891 12.28552357 1.10332891 12.28552357 -1 13 C-2.66474253 13.34281365 -4.33124535 13.67728216 -6 14 C-5.19074658 11.85294019 -4.37750887 9.7073817 -3.5625 7.5625 C-3.11003906 6.36753906 -2.65757813 5.17257813 -2.19140625 3.94140625 C-1 1 -1 1 0 0 Z " fill="#020202" transform="translate(93,243)"/>
<path d="M0 0 C2.32421875 0.08984375 2.32421875 0.08984375 5 1 C6.58203125 3.94140625 6.58203125 3.94140625 7.8125 7.5625 C8.23144531 8.76003906 8.65039062 9.95757812 9.08203125 11.19140625 C9.38496094 12.11824219 9.68789062 13.04507812 10 14 C6.66666667 13.33333333 3.33333333 12.66666667 0 12 C-0.33 12.66 -0.66 13.32 -1 14 C-2.32 14 -3.64 14 -5 14 C-4.34580901 8.93001981 -2.1453591 4.58009223 0 0 Z M2 6 C3 8 3 8 3 8 Z " fill="#010101" transform="translate(152,243)"/>
<path d="M0 0 C0 0.99 0 1.98 0 3 C-0.99 3 -1.98 3 -3 3 C-3 3.66 -3 4.32 -3 5 C-1.68 5.66 -0.36 6.32 1 7 C0.125 11.875 0.125 11.875 -1 13 C-3.67058851 13.14115161 -6.32432238 13.04247107 -9 13 C-9.5625 11.0625 -9.5625 11.0625 -10 9 C-9.67 8.67 -9.34 8.34 -9 8 C-9.28730055 5.66055264 -9.61936779 3.3260857 -10 1 C-6.1496895 -1.56687367 -4.41430237 -0.83288724 0 0 Z M-5 8 C-5.33 8.66 -5.66 9.32 -6 10 C-5.34 10 -4.68 10 -4 10 C-4.33 9.34 -4.66 8.68 -5 8 Z " fill="#020202" transform="translate(430,244)"/>
<path d="M0 0 C1.828125 0.16015625 1.828125 0.16015625 4 1 C5.484375 3.43359375 5.484375 3.43359375 6.75 6.4375 C7.39195312 7.92056641 7.39195312 7.92056641 8.046875 9.43359375 C9 12 9 12 9 14 C7.68 14 6.36 14 5 14 C4.67 13.34 4.34 12.68 4 12 C1.47266765 11.34444881 1.47266765 11.34444881 -1 11 C-1.33 11.99 -1.66 12.98 -2 14 C-3.32 14 -4.64 14 -6 14 C-4.45941767 8.98491285 -2.97068161 4.3852919 0 0 Z M1 6 C2 8 2 8 2 8 Z " fill="#010101" transform="translate(350,243)"/>
<path d="M0 0 C0 1.32 0 2.64 0 4 C-1.98 4 -3.96 4 -6 4 C-6 5.32 -6 6.64 -6 8 C-4.02 8 -2.04 8 0 8 C0 9.32 0 10.64 0 12 C-1 13 -1 13 -4.3125 13.375 C-8 13 -8 13 -10.5 10.875 C-12 8 -12 8 -12 4.875 C-11 2 -11 2 -9.375 0.0625 C-6.00996099 -1.44291219 -3.5343001 -0.74764041 0 0 Z " fill="#010101" transform="translate(412,244)"/>
<path d="M0 0 C0 1.32 0 2.64 0 4 C-1.98 4 -3.96 4 -6 4 C-6 5.32 -6 6.64 -6 8 C-2.89459074 9.21081851 -2.89459074 9.21081851 1 9 C1 9.99 1 10.98 1 12 C-2.04983996 13.52491998 -4.6423369 13.23562548 -8 13 C-9.9375 12 -9.9375 12 -11 10 C-11.46000079 7.23999526 -11.50420748 4.75595226 -11 2 C-7.92254883 -2.06223554 -4.5993135 -0.9729317 0 0 Z " fill="#010101" transform="translate(245,244)"/>
<path d="M0 0 C2.475 0.495 2.475 0.495 5 1 C5 1.66 5 2.32 5 3 C5.99 3 6.98 3 8 3 C8.66 2.01 9.32 1.02 10 0 C10.99 0 11.98 0 13 0 C12.21824485 4.84688192 10.60155722 9.3766367 9 14 C7.68 14 6.36 14 5 14 C4.80664062 13.40832031 4.61328125 12.81664062 4.4140625 12.20703125 C3.05585281 8.0853355 1.67949415 4.0049476 0 0 Z " fill="#010101" transform="translate(305,243)"/>
<path d="M0 0 C3.63 0 7.26 0 11 0 C11 1.32 11 2.64 11 4 C9.68 4 8.36 4 7 4 C7.33 6.97 7.66 9.94 8 13 C6.35 13.33 4.7 13.66 3 14 C3 11.36 3 8.72 3 6 C2.34 6 1.68 6 1 6 C1 5.34 1 4.68 1 4 C0.34 4 -0.32 4 -1 4 C-0.67 2.68 -0.34 1.36 0 0 Z " fill="#010101" transform="translate(198,243)"/>
<path d="M0 0 C1.32 0 2.64 0 4 0 C4 4.62 4 9.24 4 14 C2.68 14 1.36 14 0 14 C0 9.38 0 4.76 0 0 Z " fill="#010101" transform="translate(389,243)"/>
<path d="" fill="#000000" transform="translate(0,0)"/>
<path d="M0 0 C2 1 2 1 2 1 Z " fill="#000000" transform="translate(259,246)"/>
<path d="" fill="#000000" transform="translate(0,0)"/>
<path d="" fill="#000000" transform="translate(0,0)"/>
<path d="" fill="#000000" transform="translate(0,0)"/>
<path d="" fill="#000000" transform="translate(0,0)"/>
</svg>
